Coordinates
version=1
nRows=12
nColumns=42
inDegrees=yes

Units are S.I. units (second, meters, Newtons, ...)
If the header above contains a line with 'inDegrees', this indicates whether rotational values are in degrees (yes) or radians (no).

endheader
time	pelvis_tilt	pelvis_list	pelvis_rotation	pelvis_tx	pelvis_ty	pelvis_tz	hip_flexion_r	hip_adduction_r	hip_rotation_r	knee_angle_r	knee_adduction_r	knee_angle_r_beta	ankle_angle_r	subtalar_angle_r	mtp_angle_r	hip_flexion_l	hip_adduction_l	hip_rotation_l	knee_angle_l	knee_adduction_l	knee_angle_l_beta	ankle_angle_l	subtalar_angle_l	mtp_angle_l	lumbar_extension	lumbar_bending	lumbar_rotation	arm_flex_r	arm_add_r	arm_rot_r	elbow_flex_r	pro_sup_r	wrist_flex_r	wrist_dev_r	arm_flex_l	arm_add_l	arm_rot_l	elbow_flex_l	pro_sup_l	wrist_flex_l	wrist_dev_l
      1.06000000	     -2.09231869	     -4.28239789	     -6.78937784	     -1.44400372	      0.84219001	      0.16896100	     -5.61401302	      4.12019629	     -1.13045366	     11.22741282	      7.65100167	      0.19595532	     15.91020055	      7.85929371	     -7.58937831	     29.53175774	    -10.64716020	     -6.85554903	     20.00019603	      8.90332427	      0.34906927	      3.38412203	    -14.03986387	     -7.58937831	     -9.19944533	      2.97811688	     10.60254656	     10.56649375	    -27.23476117	      5.58561170	     43.30106419	     90.00000001	      0.00000000	      0.00000000	     -9.99651552	     -9.65583317	    -23.89604279	     44.08843363	     90.00000001	      0.00000000	      0.00000000
      1.07000000	     -1.86222109	     -4.39577517	     -7.20047368	     -1.43235774	      0.84093232	      0.16925366	     -6.42227440	      4.01766583	     -0.93807793	     11.91533497	      7.68795069	      0.20796183	     16.31113195	      7.97756036	     -7.58701342	     28.91690041	    -10.92820746	     -7.54680011	     17.13139153	      9.01353318	      0.29899919	      3.15479806	    -12.52581893	     -7.58701342	     -9.53033212	      2.99571175	     10.98805305	     11.19654427	    -27.39360738	      5.85132442	     43.97779013	     90.00000001	      0.00000000	      0.00000000	    -10.47188952	     -9.61217797	    -24.17837191	     43.84024234	     90.00000001	      0.00000000	      0.00000000
      1.08000000	     -1.76836155	     -4.54095821	     -7.64670100	     -1.42069190	      0.83965626	      0.16966138	     -7.02445931	      4.03634815	     -0.54523698	     12.71987108	      7.54371793	      0.22200363	     16.49986282	      8.11146100	     -7.58552269	     28.52903375	    -11.31503171	     -8.29271380	     14.95477179	      9.17072152	      0.26101001	      3.08001599	    -11.37684790	     -7.58552269	     -9.71039344	      3.04709505	     11.31370330	     11.78859690	    -27.44471942	      6.07149773	     44.67177090	     90.00000001	      0.00000000	      0.00000000	    -10.98495587	     -9.57689407	    -24.44651332	     43.54693883	     90.00000001	      0.00000000	      0.00000000
      1.09000000	     -1.54462418	     -4.50227592	     -7.97946448	     -1.40871613	      0.83861679	      0.16977054	     -7.73041173	      3.67815910	     -0.63699263	     13.57067313	      7.60147586	      0.23685293	     16.94390141	      8.84831507	     -7.57956950	     27.93623862	    -11.31334368	     -8.68753104	     13.07585894	      9.15590962	      0.22821679	      3.48209627	     -9.20322824	     -7.57956950	     -9.98853975	      2.88475670	     11.59721733	     11.90362058	    -28.04704698	      7.46828506	     46.10789015	     90.00000001	      0.00000000	      0.00000000	    -11.04706467	     -9.39745118	    -25.79268524	     42.77784513	     90.00000001	      0.00000000	      0.00000000
      1.10000000	     -1.58385666	     -4.56270682	     -8.36097108	     -1.39684453	      0.83752450	      0.17014241	     -8.08607231	      3.59711592	     -0.10389512	     14.50042545	      7.48771967	      0.25308017	     16.92117916	      8.86353245	     -7.57857537	     27.79144383	    -11.55278133	     -9.02380454	     12.10202558	      9.26614757	      0.21122019	      3.52512105	     -8.61778540	     -7.57857537	     -9.96643759	      2.82610548	     11.85813972	     12.34388506	    -27.95980231	      7.51828299	     46.54875767	     90.00000001	      0.00000000	      0.00000000	    -11.54007582	     -9.43205321	    -25.90989142	     42.52789836	     90.00000001	      0.00000000	      0.00000000
      1.11000000	     -1.56123751	     -4.46591760	     -8.71840013	     -1.38477270	      0.83671159	      0.17043536	     -8.41662324	      3.28591743	      0.52090325	     15.58275760	      7.49229307	      0.27197043	     16.89100762	      8.77125420	     -7.57796208	     27.45553713	    -11.51821164	     -8.85563816	     11.35293256	      9.32947163	      0.19814605	      3.63238116	     -8.12421207	     -7.57796208	     -9.99366260	      2.57379468	     12.11227601	     12.60538550	    -27.91221335	      7.64928477	     47.04180656	     90.00000001	      0.00000000	      0.00000000	    -11.83142523	     -9.51626807	    -26.15158948	     42.18734264	     90.00000001	      0.00000000	      0.00000000
      1.12000000	     -1.57707625	     -4.19495822	     -8.99996422	     -1.37249258	      0.83601352	      0.17054849	     -8.51645643	      2.76591771	      0.76367476	     17.00063058	      7.48428716	      0.29671698	     16.80530413	      8.37688488	     -7.57560117	     27.14895899	    -11.18317487	     -8.49128338	     10.98527312	      9.25517613	      0.19172919	      3.97363763	     -7.47473235	     -7.57560117	     -9.90229672	      2.14708935	     12.34191213	     12.30207497	    -28.15589411	      8.08299342	     48.18613495	     90.00000001	      0.00000000	      0.00000000	    -11.76572695	     -9.53000951	    -26.93251410	     41.30238506	     90.00000001	      0.00000000	      0.00000000
      1.13000000	     -1.60512761	     -4.03184315	     -9.34590735	     -1.36007555	      0.83555788	      0.17088041	     -8.63611811	      2.41219979	      1.53304417	     18.29863692	      7.49276543	      0.31937146	     16.39652608	      8.19741239	     -7.57481258	     26.89263656	    -11.05186288	     -8.24947895	     11.24511919	      9.27632397	      0.19626435	      4.15041037	     -7.47022576	     -7.57481258	     -9.81657439	      1.81199054	     12.51529653	     12.36862224	    -27.99547042	      8.18265761	     48.66584821	     90.00000001	      0.00000000	      0.00000000	    -12.04986459	     -9.64043084	    -27.19453373	     40.87774793	     90.00000001	      0.00000000	      0.00000000
      1.14000000	     -1.53704692	     -3.88281630	     -9.45123675	     -1.34717570	      0.83541625	      0.17122752	     -9.01470294	      2.23580263	      2.29895549	     19.26919638	      7.27838582	      0.33631092	     16.09565675	      8.16118508	     -7.57462217	     26.52150825	    -10.81435537	     -7.70215933	     11.78374264	      9.30963794	      0.20566511	      4.13508331	     -7.43311589	     -7.57462217	     -9.71939050	      1.42130431	     12.54974578	     12.10007290	    -27.79273570	      8.25721585	     48.76331403	     90.00000001	      0.00000000	      0.00000000	    -12.40616803	     -9.82280380	    -27.33940728	     40.61713144	     90.00000001	      0.00000000	      0.00000000
      1.15000000	     -1.66726000	     -3.36795615	     -9.80909868	     -1.33467816	      0.83520449	      0.17122283	     -8.39498189	      1.35934070	      2.56923790	     21.71369844	      7.56091245	      0.37897553	     14.77261615	      7.05442747	     -7.57309211	     26.36984455	    -10.25720188	     -7.91074428	     12.59366590	      9.18562748	      0.21980093	      4.28831677	     -7.74204279	     -7.57309211	     -9.46320598	      0.74066804	     12.66367142	     11.85193359	    -27.65217599	      8.27505421	     49.68236828	     90.00000001	      0.00000000	      0.00000000	    -12.36671449	     -9.97392322	    -27.70992725	     39.87871100	     90.00000001	      0.00000000	      0.00000000
      1.16000000	     -1.70530471	     -2.95890718	     -9.94349813	     -1.32176414	      0.83539809	      0.17127511	     -8.08600629	      0.77301720	      2.91058312	     23.67368749	      7.61779324	      0.41318379	     13.36783932	      5.99605229	     -7.57141009	     26.09831131	     -9.74321021	     -7.86999604	     13.50139506	      9.10885426	      0.23564380	      3.96614065	     -8.03005102	     -7.57141009	     -9.23071908	      0.13686792	     12.67309195	     11.25254859	    -27.47474621	      8.20697835	     50.39618719	     90.00000001	      0.00000000	      0.00000000	    -12.24044268	    -10.20484586	    -28.12356367	     39.04439385	     90.00000001	      0.00000000	      0.00000000
      1.17000000	     -1.73746316	     -2.62634463	     -9.98754031	     -1.30886635	      0.83592964	      0.17126547	     -7.80926861	      0.33167190	      3.91636786	     25.51208222	      7.92181021	      0.44526983	     11.47454506	      3.82476824	     -7.56657899	     25.72053910	     -9.32391229	     -7.45014758	     14.23095388	      9.26152370	      0.24837700	      3.18444924	     -9.00533945	     -7.56657899	     -9.07279133	     -0.38263984	     12.65081805	     10.41948282	    -27.19417669	      7.61544080	     51.40162375	     90.00000001	      0.00000000	      0.00000000	    -11.60842589	    -10.39933885	    -29.01429301	     37.37344810	     90.00000001	      0.00000000	      0.00000000
